# Blender v3.1.2 OBJ File: ''
# www.blender.org
mtllib schuss.mtl
o playerLaser_Plane
v 0.000000 0.225000 0.000000
v 0.000000 -0.225000 -0.000000
v 0.000000 -0.225000 -2.000000
v 0.000000 0.225000 -2.000000
v 0.000000 -0.225000 -0.000000
v 0.000000 0.225000 0.000000
v 0.000000 0.225000 -2.000000
v 0.000000 -0.225000 -2.000000
vt 0.000000 0.000000
vt 1.000000 1.000000
vt 0.000000 1.000000
vt 0.000000 0.000000
vt 1.000000 1.000000
vt 0.000000 1.000000
vt 1.000000 0.000000
vt 1.000000 0.000000
vn 1.0000 0.0000 0.0000
vn -1.0000 0.0000 0.0000
usemtl Schuss_Mat
s 1
f 2/1/1 4/2/1 1/3/1
f 6/4/2 8/5/2 5/6/2
f 2/1/1 3/7/1 4/2/1
f 6/4/2 7/8/2 8/5/2
